{
  "accessors": [
    {
      "bufferView": 2,
      "componentType": 5126,
      "count": 65532,
      "max": [
        49.744911193847656,
        52.7774658203125,
        5.67148494720459
      ],
      "min": [
        -44.28207778930664,
        -9.233526229858398,
        -14.838884353637695
      ],
      "type": "VEC3"
    },
    {
      "bufferView": 2,
      "byteOffset": 786384,
      "componentType": 5126,
      "count": 65532,
      "max": [
        0.9993821382522583,
        0.999538242816925,
        0.9999813437461853
      ],
      "min": [
        -0.9996837377548218,
        -0.9997192621231079,
        -0.9997965097427368
      ],
      "type": "VEC3"
    },
    {
      "bufferView": 1,
      "componentType": 5126,
      "count": 65532,
      "max": [
        0.9941490292549133,
        0.9974560141563416
      ],
      "min": [
        0.001221999991685152,
        0.001184999942779541
      ],
      "type": "VEC2"
    },
    {
      "bufferView": 0,
      "componentType": 5125,
      "count": 326148,
      "type": "SCALAR"
    },
    {
      "bufferView": 2,
      "byteOffset": 1572768,
      "componentType": 5126,
      "count": 65532,
      "max": [
        71.21743774414063,
        43.51102828979492,
        3.8805360794067383
      ],
      "min": [
        -4.7630839347839355,
        -15.52957534790039,
        -19.688264846801758
      ],
      "type": "VEC3"
    },
    {
      "bufferView": 2,
      "byteOffset": 2359152,
      "componentType": 5126,
      "count": 65532,
      "max": [
        0.9998980760574341,
        0.9999418258666992,
        0.9999956488609314
      ],
      "min": [
        -0.9999914765357971,
        -0.9999861717224121,
        -0.9999390840530396
      ],
      "type": "VEC3"
    },
    {
      "bufferView": 1,
      "byteOffset": 524256,
      "componentType": 5126,
      "count": 65532,
      "max": [
        0.9935619831085205,
        0.9995530247688293
      ],
      "min": [
        0.00035799999022856355,
        0.0
      ],
      "type": "VEC2"
    },
    {
      "bufferView": 0,
      "byteOffset": 1304592,
      "componentType": 5125,
      "count": 303567,
      "type": "SCALAR"
    },
    {
      "bufferView": 2,
      "byteOffset": 3145536,
      "componentType": 5126,
      "count": 65532,
      "max": [
        112.02821350097656,
        32.25886917114258,
        1.2547340393066406
      ],
      "min": [
        -16.465431213378906,
        -28.034910202026367,
        -27.120899200439453
      ],
      "type": "VEC3"
    },
    {
      "bufferView": 2,
      "byteOffset": 3931920,
      "componentType": 5126,
      "count": 65532,
      "max": [
        0.9999524354934692,
        0.9999690055847168,
        0.9999697804450989
      ],
      "min": [
        -0.9999393224716187,
        -0.9999721646308899,
        -0.9999847412109375
      ],
      "type": "VEC3"
    },
    {
      "bufferView": 1,
      "byteOffset": 1048512,
      "componentType": 5126,
      "count": 65532,
      "max": [
        0.9925119876861572,
        1.0
      ],
      "min": [
        0.0,
        0.0
      ],
      "type": "VEC2"
    },
    {
      "bufferView": 0,
      "byteOffset": 2518860,
      "componentType": 5125,
      "count": 312375,
      "type": "SCALAR"
    },
    {
      "bufferView": 2,
      "byteOffset": 4718304,
      "componentType": 5126,
      "count": 59727,
      "max": [
        87.52839660644531,
        39.498512268066406,
        0.9170479774475098
      ],
      "min": [
        13.783220291137695,
        -21.931482315063477,
        -23.180782318115234
      ],
      "type": "VEC3"
    },
    {
      "bufferView": 2,
      "byteOffset": 5435028,
      "componentType": 5126,
      "count": 59727,
      "max": [
        0.9999184012413025,
        0.9997808933258057,
        0.999997615814209
      ],
      "min": [
        -0.999398946762085,
        -0.9998208284378052,
        -0.9998571872711182
      ],
      "type": "VEC3"
    },
    {
      "bufferView": 1,
      "byteOffset": 1572768,
      "componentType": 5126,
      "count": 59727,
      "max": [
        0.9914770126342773,
        0.9995759725570679
      ],
      "min": [
        0.0,
        0.0
      ],
      "type": "VEC2"
    },
    {
      "bufferView": 0,
      "byteOffset": 3768360,
      "componentType": 5125,
      "count": 257907,
      "type": "SCALAR"
    }
  ],
  "asset": {
    "extras": {
      "author": "Laboratorium Sejarah UNDIKSHA (https://sketchfab.com/lab-sos-hum)",
      "license": "CC-BY-NC-4.0 (http://creativecommons.org/licenses/by-nc/4.0/)",
      "source": "https://sketchfab.com/3d-models/perahu-kuno-punjulharjo-dfa42f144efb40aa90daf15bc8385249",
      "title": "Perahu Kuno Punjulharjo"
    },
    "generator": "Sketchfab-12.66.0",
    "version": "2.0"
  },
  "bufferViews": [
    {
      "buffer": 0,
      "byteLength": 4799988,
      "name": "floatBufferViews",
      "target": 34963
    },
    {
      "buffer": 0,
      "byteLength": 2050584,
      "byteOffset": 4799988,
      "byteStride": 8,
      "name": "floatBufferViews",
      "target": 34962
    },
    {
      "buffer": 0,
      "byteLength": 6151752,
      "byteOffset": 6850572,
      "byteStride": 12,
      "name": "floatBufferViews",
      "target": 34962
    }
  ],
  "buffers": [
    {
      "byteLength": 13002324,
      "uri": "scene.bin"
    }
  ],
  "extensionsUsed": [
    "KHR_materials_unlit"
  ],
  "images": [
    {
      "uri": "textures/perahu_baseColor.jpeg"
    }
  ],
  "materials": [
    {
      "doubleSided": true,
      "extensions": {
        "KHR_materials_unlit": {}
      },
      "name": "perahu",
      "pbrMetallicRoughness": {
        "baseColorTexture": {
          "index": 0
        },
        "metallicFactor": 0.0
      }
    }
  ],
  "meshes": [
    {
      "name": "Object_0",
      "primitives": [
        {
          "attributes": {
            "NORMAL": 1,
            "POSITION": 0,
            "TEXCOORD_0": 2
          },
          "indices": 3,
          "material": 0,
          "mode": 4
        }
      ]
    },
    {
      "name": "Object_1",
      "primitives": [
        {
          "attributes": {
            "NORMAL": 5,
            "POSITION": 4,
            "TEXCOORD_0": 6
          },
          "indices": 7,
          "material": 0,
          "mode": 4
        }
      ]
    },
    {
      "name": "Object_2",
      "primitives": [
        {
          "attributes": {
            "NORMAL": 9,
            "POSITION": 8,
            "TEXCOORD_0": 10
          },
          "indices": 11,
          "material": 0,
          "mode": 4
        }
      ]
    },
    {
      "name": "Object_3",
      "primitives": [
        {
          "attributes": {
            "NORMAL": 13,
            "POSITION": 12,
            "TEXCOORD_0": 14
          },
          "indices": 15,
          "material": 0,
          "mode": 4
        }
      ]
    }
  ],
  "nodes": [
    {
      "children": [
        1
      ],
      "matrix": [
        -0.9612495303153992,
        0.1790263801813125,
        0.20964001119136813,
        0.0,
        0.22861361503601074,
        0.09268844872713067,
        0.9690947532653809,
        0.0,
        0.15406233072280884,
        0.9794684052467346,
        -0.13002459704875924,
        0.0,
        64.9863052368164,
        -2.423232316970818,
        -32.156166076660156,
        1.0
      ],
      "name": "Sketchfab_model"
    },
    {
      "children": [
        2,
        3,
        4,
        5
      ],
      "name": "perahu.obj.cleaner.materialmerger.gles"
    },
    {
      "mesh": 0,
      "name": "Object_2"
    },
    {
      "mesh": 1,
      "name": "Object_3"
    },
    {
      "mesh": 2,
      "name": "Object_4"
    },
    {
      "mesh": 3,
      "name": "Object_5"
    }
  ],
  "samplers": [
    {
      "magFilter": 9729,
      "minFilter": 9987,
      "wrapS": 10497,
      "wrapT": 10497
    }
  ],
  "scene": 0,
  "scenes": [
    {
      "name": "Sketchfab_Scene",
      "nodes": [
        0
      ]
    }
  ],
  "textures": [
    {
      "sampler": 0,
      "source": 0
    }
  ]
}
